<svg xmlns="http://www.w3.org/2000/svg" viewBox="0 0 320 240" fill="none">
  <rect x="40" y="30" width="90" height="110" rx="8" fill="#1e293b" stroke="#ef4444" stroke-width="2" opacity="0.9"/>
  <rect x="55" y="45" width="60" height="6" rx="3" fill="#ef4444" opacity="0.5"/>
  <rect x="55" y="58" width="50" height="4" rx="2" fill="#64748b"/>
  <rect x="55" y="68" width="55" height="4" rx="2" fill="#64748b"/>
  <rect x="70" y="90" width="80" height="100" rx="8" fill="#1e293b" stroke="#f59e0b" stroke-width="2"/>
  <rect x="85" y="105" width="50" height="6" rx="3" fill="#f59e0b" opacity="0.5"/>
  <rect x="85" y="118" width="40" height="4" rx="2" fill="#64748b"/>
  <rect x="100" y="150" width="90" height="110" rx="8" fill="#1e293b" stroke="#8b5cf6" stroke-width="2" opacity="0.9"/>
  <circle cx="230" cy="100" r="36" fill="url(#g1)"/>
  <circle cx="218" cy="92" r="4" fill="#0f172a"/>
  <circle cx="242" cy="92" r="4" fill="#0f172a"/>
  <path d="M220 112c6 0 14 0 20 0" stroke="#0f172a" stroke-width="3" stroke-linecap="round"/>
  <text x="230" y="165" text-anchor="middle" font-family="Manrope,sans-serif" font-size="11" fill="#94a3b8">?</text>
  <path d="M230 136v20" stroke="#ef4444" stroke-width="2" stroke-dasharray="4 3"/>
  <defs>
    <linearGradient id="g1" x1="200" y1="60" x2="260" y2="140" gradientUnits="userSpaceOnUse">
      <stop stop-color="#f59e0b"/><stop offset="1" stop-color="#ef4444"/>
    </linearGradient>
  </defs>
</svg>
