<svg xmlns="http://www.w3.org/2000/svg" viewBox="0 0 520 280" fill="none">
  <rect x="8" y="8" width="504" height="264" rx="16" fill="rgba(16,185,129,0.06)" stroke="rgba(16,185,129,0.45)" stroke-width="2" stroke-dasharray="8 4"/>
  <text x="260" y="32" text-anchor="middle" font-family="system-ui,sans-serif" font-size="12" font-weight="700" fill="#10b981">CLOSED CONTOUR - no internet</text>
  <rect x="28" y="52" width="96" height="52" rx="10" fill="#0f172a" stroke="#0084ff"/>
  <text x="76" y="74" text-anchor="middle" font-family="system-ui,sans-serif" font-size="10" fill="#94a3b8">Telegram</text>
  <text x="76" y="90" text-anchor="middle" font-family="system-ui,sans-serif" font-size="9" fill="#64748b">Web UI</text>
  <rect x="156" y="52" width="96" height="52" rx="10" fill="#0f172a" stroke="#8b5cf6"/>
  <text x="204" y="74" text-anchor="middle" font-family="system-ui,sans-serif" font-size="10" fill="#c4b5fd">FastAPI</text>
  <text x="204" y="90" text-anchor="middle" font-family="system-ui,sans-serif" font-size="9" fill="#64748b">RAG</text>
  <rect x="284" y="52" width="96" height="52" rx="10" fill="#0f172a" stroke="#00c2ff"/>
  <text x="332" y="74" text-anchor="middle" font-family="system-ui,sans-serif" font-size="10" fill="#94a3b8">Qdrant</text>
  <text x="332" y="90" text-anchor="middle" font-family="system-ui,sans-serif" font-size="9" fill="#64748b">e5 embed</text>
  <rect x="412" y="52" width="80" height="52" rx="10" fill="#0f172a" stroke="#10b981"/>
  <text x="452" y="74" text-anchor="middle" font-family="system-ui,sans-serif" font-size="10" fill="#10b981">Ollama</text>
  <text x="452" y="90" text-anchor="middle" font-family="system-ui,sans-serif" font-size="9" fill="#64748b">LLM local</text>
  <path d="M124 78h24M252 78h24M380 78h24" stroke="#64748b" stroke-width="2" marker-end="url(#arrow)"/>
  <rect x="28" y="132" width="112" height="44" rx="10" fill="#0f172a" stroke="#f59e0b"/>
  <text x="84" y="150" text-anchor="middle" font-family="system-ui,sans-serif" font-size="10" fill="#fbbf24">Whisper</text>
  <text x="84" y="166" text-anchor="middle" font-family="system-ui,sans-serif" font-size="9" fill="#64748b">voice STT</text>
  <rect x="160" y="132" width="112" height="44" rx="10" fill="#0f172a" stroke="#ef4444"/>
  <text x="216" y="150" text-anchor="middle" font-family="system-ui,sans-serif" font-size="10" fill="#fca5a5">Evaluator</text>
  <text x="216" y="166" text-anchor="middle" font-family="system-ui,sans-serif" font-size="9" fill="#64748b">confidence</text>
  <rect x="292" y="132" width="112" height="44" rx="10" fill="#0f172a" stroke="#ec4899"/>
  <text x="348" y="150" text-anchor="middle" font-family="system-ui,sans-serif" font-size="10" fill="#f472b6">Escalation</text>
  <text x="348" y="166" text-anchor="middle" font-family="system-ui,sans-serif" font-size="9" fill="#64748b">operator queue</text>
  <rect x="28" y="200" width="464" height="56" rx="10" fill="rgba(0,132,255,0.08)" stroke="rgba(0,132,255,0.35)"/>
  <text x="260" y="222" text-anchor="middle" font-family="system-ui,sans-serif" font-size="10" fill="#94a3b8">Demo: GigaChat (cloud) - one line in .env</text>
  <text x="260" y="242" text-anchor="middle" font-family="system-ui,sans-serif" font-size="9" fill="#64748b">Prod: Ollama + Redis + Docker - data stays inside</text>
  <defs>
    <marker id="arrow" markerWidth="6" markerHeight="6" refX="5" refY="3" orient="auto">
      <path d="M0,0 L6,3 L0,6" fill="#64748b"/>
    </marker>
  </defs>
</svg>
